<svg width="48" height="48" viewBox="0 0 48 48" fill="none" xmlns="http://www.w3.org/2000/svg">
<path d="M34 6.68003C37.0165 8.42174 39.5259 10.9211 41.2796 13.9306C43.0334 16.9402 43.9707 20.3556 43.9989 23.8387C44.027 27.3218 43.1449 30.7519 41.44 33.7894C39.7351 36.8269 37.2665 39.3665 34.2785 41.1567C31.2905 42.9469 27.8867 43.9257 24.4042 43.9962C20.9217 44.0666 17.4811 43.2264 14.4231 41.5585C11.3651 39.8907 8.79574 37.4531 6.96933 34.4871C5.14292 31.521 4.12282 28.1295 4.01 24.648L4 24L4.01 23.352C4.12201 19.898 5.1271 16.532 6.92728 13.582C8.72746 10.6321 11.2613 8.19893 14.2818 6.51979C17.3023 4.84065 20.7063 3.97282 24.162 4.0009C27.6177 4.02899 31.0072 4.95202 34 6.68003ZM31.414 18.586C31.0696 18.2417 30.6114 18.0348 30.1254 18.0043C29.6393 17.9737 29.1588 18.1215 28.774 18.42L28.586 18.586L22 25.17L19.414 22.586L19.226 22.42C18.8412 22.1217 18.3607 21.9741 17.8748 22.0047C17.3889 22.0354 16.9308 22.2423 16.5865 22.5866C16.2422 22.9308 16.0354 23.3889 16.0047 23.8748C15.974 24.3608 16.1217 24.8412 16.42 25.226L16.586 25.414L20.586 29.414L20.774 29.58C21.1247 29.8522 21.5561 29.9999 22 29.9999C22.4439 29.9999 22.8753 29.8522 23.226 29.58L23.414 29.414L31.414 21.414L31.58 21.226C31.8785 20.8412 32.0263 20.3607 31.9958 19.8747C31.9652 19.3886 31.7584 18.9304 31.414 18.586Z" fill="#21733F"/>
</svg>
