<svg xmlns="http://www.w3.org/2000/svg" width="218" height="88" viewBox="0 0 218 88" fill="none">
  <path d="M27.6709 80.0096C26.8262 80.6079 25.6647 80.8543 25.0663 80.8895L29.0788 87.5769H27.3893L23.3769 80.8895H16.4783V87.5769H15V71.7031H24.3272C25.911 71.7031 26.4038 71.8439 27.3189 72.3367C28.6212 73.0406 29.3955 74.906 29.3955 76.2787C29.3955 77.6514 28.7268 79.2001 27.6357 80.0096M26.6502 73.6741C26.087 73.3222 25.5239 73.1814 23.6936 73.1814H16.4783V79.4464H23.6936C25.3831 79.4464 26.1222 79.3408 26.7558 78.8833C27.5653 78.2849 27.9525 77.229 27.9525 76.2435C27.9525 75.1876 27.5653 74.2373 26.6502 73.6741Z" fill="white"/>
  <path d="M44.811 87.6117V71.7379H57.8691V73.2161H46.2189V78.6717H52.5895V80.1147H46.2189V86.1334H58.397V87.6117H44.811Z" fill="white"/>
  <path d="M79.6574 87.9648C78.2848 87.9648 76.9121 87.7536 75.6098 87.2961C73.9907 86.7329 73.0756 85.9234 71.8789 84.7267L72.8644 83.6708C74.9058 85.7474 76.8769 86.4865 79.763 86.4865C81.8748 86.4865 85.8521 85.9234 85.8521 83.0724C85.8521 81.031 83.7403 80.1863 82.2972 80.0455C81.4173 79.9751 79.3055 79.9751 78.1088 79.9751C75.7154 79.9399 73.0404 78.9896 73.0404 76.1386C73.0404 73.7452 75.0466 72.3374 77.1233 71.7742C78.1088 71.4926 79.1295 71.3871 80.115 71.3871C82.5788 71.3871 84.4794 72.1966 86.4504 73.6749L85.5705 74.766C83.6347 73.5341 82.262 72.8301 79.8686 72.8301C79.1999 72.8301 78.4959 72.8653 77.8272 73.0413C76.3489 73.3933 74.4835 74.3788 74.4835 76.1386C74.4835 78.0745 76.5601 78.4968 78.1088 78.532C79.3759 78.5672 81.2413 78.5672 82.438 78.6728C85.113 78.884 87.3656 80.3623 87.3656 83.0724C87.3656 86.9793 82.7548 88 79.6926 88" fill="white"/>
  <path d="M109.432 87.9296C104.68 87.9296 100.844 84.4451 100.844 79.6231C100.844 74.8012 104.68 71.3871 109.326 71.3871C113.972 71.3871 117.914 74.8364 117.914 79.6583C117.914 84.4803 114.113 87.9296 109.432 87.9296ZM109.432 72.8301C105.595 72.8301 102.287 75.6459 102.287 79.5879C102.287 83.53 105.419 86.4865 109.397 86.4865C113.374 86.4865 116.506 83.7412 116.506 79.7287C116.506 75.7163 113.339 72.8301 109.432 72.8301Z" fill="white"/>
  <path d="M145.546 80.0096C144.701 80.6079 143.54 80.8543 142.942 80.8895L146.954 87.5769H145.265L141.252 80.8895H134.354V87.5769H132.875V71.7031H142.202C143.786 71.7031 144.279 71.8439 145.194 72.3367C146.496 73.0406 147.271 74.906 147.271 76.2787C147.271 77.6514 146.602 79.2001 145.511 80.0096M144.525 73.6741C143.962 73.3222 143.399 73.1814 141.569 73.1814H134.354V79.4464H141.569C143.258 79.4464 143.998 79.3408 144.631 78.8833C145.441 78.2849 145.828 77.229 145.828 76.2435C145.828 75.1876 145.441 74.2373 144.525 73.6741Z" fill="white"/>
  <path d="M168.668 73.1809V87.6117H167.225V73.1809H161.135V71.7379H174.651V73.1809H168.668Z" fill="white"/>
  <path d="M195.526 87.9648C194.153 87.9648 192.78 87.7536 191.478 87.2961C189.859 86.7329 188.944 85.9234 187.747 84.7267L188.733 83.6708C190.774 85.7474 192.745 86.4865 195.631 86.4865C197.778 86.4865 201.72 85.9234 201.72 83.0724C201.72 81.031 199.608 80.1863 198.165 80.0455C197.285 79.9751 195.174 79.9751 193.977 79.9751C191.584 79.9399 188.873 78.9896 188.873 76.1386C188.873 73.7452 190.88 72.3374 192.956 71.7742C193.942 71.4926 194.962 71.3871 195.948 71.3871C198.412 71.3871 200.312 72.1966 202.248 73.6749L201.368 74.766C199.432 73.5341 198.06 72.8301 195.702 72.8301C195.033 72.8301 194.329 72.8653 193.66 73.0413C192.182 73.3933 190.316 74.3788 190.316 76.1386C190.316 78.0745 192.393 78.4968 193.942 78.532C195.209 78.5672 197.074 78.5672 198.271 78.6728C200.946 78.884 203.199 80.3623 203.199 83.0724C203.199 86.9793 198.588 88 195.526 88" fill="white"/>
  <path d="M94.334 0.00662713L98.3817 11.3752L101.972 5.46215L94.334 0.00662713Z" fill="white"/>
  <path d="M98.1357 10.6712L99.2972 13.9797C102.5 13.8389 105.738 13.7333 109.047 13.7333C112.355 13.7333 115.875 13.8389 119.183 13.9797L120.204 10.636C116.579 10.3896 112.848 10.284 109.047 10.284C105.245 10.284 101.691 10.3896 98.1357 10.636M50.9366 23.2365C63.15 18.5553 78.9886 15.1764 96.6574 14.0853L95.4959 10.8119C76.6304 12.3254 60.651 16.901 50.9014 23.2365M122.809 10.8471L121.788 14.1205C139.422 15.2468 155.155 18.5905 167.298 23.2365C157.724 16.9362 141.709 12.3606 122.809 10.8471Z" fill="white"/>
  <path d="M123.935 0.00662713L119.888 11.6216L116.298 5.49735L123.935 0.00662713Z" fill="white"/>
  <path d="M109.083 0L106.821 2.26836L109.09 4.52961L111.351 2.26125L109.083 0Z" fill="white"/>
  <path d="M105.933 3.22646L103.669 5.49285L105.936 7.75607L108.199 5.48968L105.933 3.22646Z" fill="white"/>
  <path d="M112.322 3.23298L110.059 5.49936L112.326 7.76259L114.589 5.4962L112.322 3.23298Z" fill="white"/>
  <path d="M31.0494 49.4599H19.2936V60.9693H15.3164V33.8324H31.0494C35.8362 33.8324 38.9687 36.7186 38.9687 41.5758C38.9687 46.4329 35.801 49.4247 31.0494 49.4247M31.0494 37.7745H19.2936V45.4122H31.0846C33.6188 45.4122 35.097 44.1803 35.097 41.5406C35.097 38.9008 33.7244 37.7745 31.0846 37.7745" fill="white"/>
  <path d="M68.5708 61.0015L64.664 52.0615H52.4858L48.4382 61.0015H44.1442L56.4631 33.7943H60.8275L72.9704 61.0015H68.5356H68.5708ZM58.6101 38.6163L54.3161 48.0842H62.9041L58.6101 38.6163Z" fill="white"/>
  <path d="M81.6647 61.0015V33.6535H85.6419V57.0242H102.149V61.0015H81.6647Z" fill="white"/>
  <path d="M134.283 61.0015L130.376 52.0615H118.198L114.15 61.0015H109.856L122.175 33.7943H126.54L138.683 61.0015H134.248H134.283ZM124.322 38.6163L120.028 48.0842H128.616L124.322 38.6163Z" fill="white"/>
  <path d="M159.414 61.6357C151.038 61.6357 144.139 56.0394 144.139 47.3458C144.139 39.1097 150.51 33.1966 158.605 33.1966C163.638 33.1966 168.143 35.3084 171.698 38.7577L168.742 41.2567C165.82 38.8281 162.688 37.1387 158.816 37.1387C152.833 37.1387 148.011 41.2567 148.011 47.381C148.011 53.9628 153.537 57.5881 159.626 57.5881C163.884 57.5881 166.524 56.1802 169.481 53.2236L172.085 56.0746C168.812 59.9462 164.342 61.6005 159.344 61.6005" fill="white"/>
  <path d="M179.896 61.0045V33.8324H202.211V37.8449H183.838V44.9195H193.095V48.8615H183.838V57.0272H202.915V61.0045H179.896Z" fill="white"/>
  <path d="M212.667 70.8579C215.025 70.8579 216.961 72.7938 216.961 75.152C216.961 77.5101 215.025 79.446 212.667 79.446C210.309 79.446 208.373 77.5101 208.373 75.152C208.373 72.7938 210.309 70.8579 212.667 70.8579ZM212.667 78.8124C214.709 78.8124 216.328 77.1582 216.328 75.152C216.328 73.1457 214.673 71.4915 212.667 71.4915C210.661 71.4915 209.007 73.1105 209.007 75.152C209.007 77.1934 210.661 78.8124 212.667 78.8124ZM211.752 77.6157H211.119V72.653H213.019C214.145 72.653 214.568 73.1457 214.568 74.0257C214.568 74.9056 214.005 75.3279 213.336 75.4335L214.814 77.6157H214.11L212.632 75.4335H211.752V77.6157ZM211.752 74.9056H212.562C213.23 74.9056 213.969 74.8704 213.969 74.0608C213.969 73.4273 213.406 73.2513 212.843 73.2513H211.752V74.9408V74.9056Z" fill="white"/>
</svg>