<svg width="63" height="12" viewBox="0 0 63 12" fill="none" xmlns="http://www.w3.org/2000/svg">
<path d="M0 11.52V0.32H3.824C4.70933 0.32 5.44 0.469333 6.016 0.768C6.592 1.056 7.01867 1.456 7.296 1.968C7.584 2.46933 7.728 3.03467 7.728 3.664C7.728 4.28267 7.58933 4.848 7.312 5.36C7.04533 5.86133 6.624 6.26667 6.048 6.576C5.472 6.87467 4.73067 7.024 3.824 7.024H1.6V11.52H0ZM1.6 5.696H3.76C4.592 5.696 5.184 5.51467 5.536 5.152C5.89867 4.77867 6.08 4.28267 6.08 3.664C6.08 3.024 5.89867 2.528 5.536 2.176C5.184 1.824 4.592 1.648 3.76 1.648H1.6V5.696Z" fill="url(#paint0_linear_3217_201)"/>
<path d="M11.1233 11.712C10.4619 11.712 9.91258 11.6 9.47525 11.376C9.03792 11.152 8.71258 10.8533 8.49925 10.48C8.28592 10.1067 8.17925 9.696 8.17925 9.248C8.17925 8.72533 8.31258 8.27733 8.57925 7.904C8.85658 7.52 9.25125 7.22667 9.76325 7.024C10.2859 6.82133 10.9046 6.72 11.6192 6.72H13.7153C13.7153 6.25067 13.6459 5.86133 13.5072 5.552C13.3686 5.24267 13.1606 5.01333 12.8832 4.864C12.6166 4.704 12.2753 4.624 11.8593 4.624C11.3793 4.624 10.9633 4.74133 10.6112 4.976C10.2699 5.21067 10.0619 5.552 9.98725 6H8.37125C8.43525 5.424 8.62725 4.93867 8.94725 4.544C9.27792 4.13867 9.69925 3.82933 10.2112 3.616C10.7232 3.40267 11.2726 3.296 11.8593 3.296C12.6059 3.296 13.2353 3.42933 13.7473 3.696C14.2699 3.96267 14.6593 4.34133 14.9153 4.832C15.1819 5.312 15.3153 5.88267 15.3153 6.544V11.52H13.9233L13.7952 10.16C13.6779 10.3733 13.5393 10.576 13.3793 10.768C13.2193 10.96 13.0273 11.1253 12.8033 11.264C12.5899 11.4027 12.3393 11.5093 12.0513 11.584C11.7739 11.6693 11.4646 11.712 11.1233 11.712ZM11.4273 10.416C11.7686 10.416 12.0779 10.3467 12.3552 10.208C12.6326 10.0693 12.8672 9.88267 13.0592 9.648C13.2619 9.40267 13.4113 9.13067 13.5072 8.832C13.6139 8.53333 13.6726 8.21867 13.6832 7.888V7.856H11.7792C11.3206 7.856 10.9473 7.91467 10.6593 8.032C10.3819 8.13867 10.1793 8.288 10.0513 8.48C9.92325 8.672 9.85925 8.896 9.85925 9.152C9.85925 9.408 9.91792 9.632 10.0352 9.824C10.1632 10.0053 10.3446 10.1493 10.5793 10.256C10.8139 10.3627 11.0966 10.416 11.4273 10.416Z" fill="url(#paint1_linear_3217_201)"/>
<path d="M16.8575 11.52V0H18.4575V11.52H16.8575Z" fill="url(#paint2_linear_3217_201)"/>
<path d="M22.8264 11.712C22.165 11.712 21.6157 11.6 21.1784 11.376C20.741 11.152 20.4157 10.8533 20.2024 10.48C19.989 10.1067 19.8824 9.696 19.8824 9.248C19.8824 8.72533 20.0157 8.27733 20.2824 7.904C20.5597 7.52 20.9544 7.22667 21.4664 7.024C21.989 6.82133 22.6077 6.72 23.3224 6.72H25.4184C25.4184 6.25067 25.349 5.86133 25.2104 5.552C25.0717 5.24267 24.8637 5.01333 24.5864 4.864C24.3197 4.704 23.9784 4.624 23.5624 4.624C23.0824 4.624 22.6664 4.74133 22.3144 4.976C21.973 5.21067 21.765 5.552 21.6904 6H20.0744C20.1384 5.424 20.3304 4.93867 20.6504 4.544C20.981 4.13867 21.4024 3.82933 21.9144 3.616C22.4264 3.40267 22.9757 3.296 23.5624 3.296C24.309 3.296 24.9384 3.42933 25.4504 3.696C25.973 3.96267 26.3624 4.34133 26.6184 4.832C26.885 5.312 27.0184 5.88267 27.0184 6.544V11.52H25.6264L25.4984 10.16C25.381 10.3733 25.2424 10.576 25.0824 10.768C24.9224 10.96 24.7304 11.1253 24.5064 11.264C24.293 11.4027 24.0424 11.5093 23.7544 11.584C23.477 11.6693 23.1677 11.712 22.8264 11.712ZM23.1304 10.416C23.4717 10.416 23.781 10.3467 24.0584 10.208C24.3357 10.0693 24.5704 9.88267 24.7624 9.648C24.965 9.40267 25.1144 9.13067 25.2104 8.832C25.317 8.53333 25.3757 8.21867 25.3864 7.888V7.856H23.4824C23.0237 7.856 22.6504 7.91467 22.3624 8.032C22.085 8.13867 21.8824 8.288 21.7544 8.48C21.6264 8.672 21.5624 8.896 21.5624 9.152C21.5624 9.408 21.621 9.632 21.7384 9.824C21.8664 10.0053 22.0477 10.1493 22.2824 10.256C22.517 10.3627 22.7997 10.416 23.1304 10.416Z" fill="url(#paint3_linear_3217_201)"/>
<path d="M32.2886 11.712C31.51 11.712 30.8166 11.536 30.2086 11.184C29.6006 10.832 29.1206 10.3413 28.7686 9.712C28.4273 9.072 28.2566 8.34133 28.2566 7.52C28.2566 6.67733 28.4273 5.94133 28.7686 5.312C29.1206 4.68267 29.6006 4.192 30.2086 3.84C30.8166 3.47733 31.51 3.296 32.2886 3.296C33.27 3.296 34.0913 3.552 34.7526 4.064C35.414 4.56533 35.83 5.25333 36.0006 6.128H34.3366C34.2406 5.66933 34.0006 5.312 33.6166 5.056C33.2326 4.8 32.7846 4.672 32.2726 4.672C31.846 4.672 31.4513 4.77867 31.0886 4.992C30.726 5.20533 30.4326 5.52533 30.2086 5.952C29.9953 6.368 29.8886 6.88533 29.8886 7.504C29.8886 7.96267 29.9526 8.37333 30.0806 8.736C30.2086 9.088 30.3793 9.38667 30.5926 9.632C30.8166 9.86667 31.0726 10.048 31.3606 10.176C31.6486 10.2933 31.9526 10.352 32.2726 10.352C32.6246 10.352 32.9393 10.2987 33.2166 10.192C33.5046 10.0747 33.7446 9.904 33.9366 9.68C34.1393 9.456 34.2726 9.18933 34.3366 8.88H36.0006C35.83 9.73333 35.414 10.4213 34.7526 10.944C34.0913 11.456 33.27 11.712 32.2886 11.712Z" fill="url(#paint4_linear_3217_201)"/>
<path d="M41.0527 11.712C40.2741 11.712 39.5861 11.5413 38.9888 11.2C38.3914 10.848 37.9221 10.3573 37.5807 9.728C37.2501 9.09867 37.0848 8.36267 37.0848 7.52C37.0848 6.67733 37.2501 5.94133 37.5807 5.312C37.9221 4.68267 38.3914 4.192 38.9888 3.84C39.5861 3.47733 40.2794 3.296 41.0687 3.296C41.8581 3.296 42.5354 3.472 43.1008 3.824C43.6661 4.16533 44.1034 4.62933 44.4128 5.216C44.7221 5.792 44.8768 6.432 44.8768 7.136C44.8768 7.24267 44.8768 7.36 44.8768 7.488C44.8768 7.60533 44.8661 7.73333 44.8447 7.872H38.2528V6.752H43.2767C43.2447 6.09067 43.0208 5.57333 42.6048 5.2C42.1888 4.816 41.6714 4.624 41.0527 4.624C40.6261 4.624 40.2261 4.72 39.8528 4.912C39.4901 5.104 39.1968 5.392 38.9728 5.776C38.7594 6.14933 38.6527 6.624 38.6527 7.2V7.648C38.6527 8.24533 38.7594 8.74667 38.9728 9.152C39.1968 9.55733 39.4901 9.86667 39.8528 10.08C40.2154 10.2827 40.6101 10.384 41.0368 10.384C41.5488 10.384 41.9701 10.272 42.3008 10.048C42.6421 9.81333 42.8927 9.504 43.0527 9.12H44.6528C44.5034 9.62133 44.2634 10.0693 43.9328 10.464C43.6128 10.848 43.2074 11.152 42.7168 11.376C42.2368 11.6 41.6821 11.712 41.0527 11.712Z" fill="url(#paint5_linear_3217_201)"/>
<path d="M49.8281 11.52V0.32H51.4281V11.52H49.8281Z" fill="url(#paint6_linear_3217_201)"/>
<path d="M53.2656 11.52V0.32H56.7376C58.039 0.32 59.1163 0.549333 59.9696 1.008C60.823 1.46667 61.4523 2.11733 61.8576 2.96C62.2736 3.792 62.4816 4.784 62.4816 5.936C62.4816 7.088 62.2736 8.08 61.8576 8.912C61.4523 9.744 60.823 10.3893 59.9696 10.848C59.1163 11.296 58.039 11.52 56.7376 11.52H53.2656ZM54.8656 10.176H56.6736C57.7083 10.176 58.5296 10.0053 59.1376 9.664C59.7456 9.32267 60.1776 8.83733 60.4336 8.208C60.7003 7.568 60.8336 6.81067 60.8336 5.936C60.8336 5.05067 60.7003 4.288 60.4336 3.648C60.1776 3.008 59.7456 2.51733 59.1376 2.176C58.5296 1.83467 57.7083 1.664 56.6736 1.664H54.8656V10.176Z" fill="url(#paint7_linear_3217_201)"/>
<defs>
<linearGradient id="paint0_linear_3217_201" x1="0" y1="5.856" x2="74.1969" y2="5.856" gradientUnits="userSpaceOnUse">
<stop offset="0.274038" stop-color="#1C6CC7"/>
<stop offset="1" stop-color="#03B9FF"/>
</linearGradient>
<linearGradient id="paint1_linear_3217_201" x1="0" y1="5.856" x2="74.1969" y2="5.856" gradientUnits="userSpaceOnUse">
<stop offset="0.274038" stop-color="#1C6CC7"/>
<stop offset="1" stop-color="#03B9FF"/>
</linearGradient>
<linearGradient id="paint2_linear_3217_201" x1="0" y1="5.856" x2="74.1969" y2="5.856" gradientUnits="userSpaceOnUse">
<stop offset="0.274038" stop-color="#1C6CC7"/>
<stop offset="1" stop-color="#03B9FF"/>
</linearGradient>
<linearGradient id="paint3_linear_3217_201" x1="0" y1="5.856" x2="74.1969" y2="5.856" gradientUnits="userSpaceOnUse">
<stop offset="0.274038" stop-color="#1C6CC7"/>
<stop offset="1" stop-color="#03B9FF"/>
</linearGradient>
<linearGradient id="paint4_linear_3217_201" x1="0" y1="5.856" x2="74.1969" y2="5.856" gradientUnits="userSpaceOnUse">
<stop offset="0.274038" stop-color="#1C6CC7"/>
<stop offset="1" stop-color="#03B9FF"/>
</linearGradient>
<linearGradient id="paint5_linear_3217_201" x1="0" y1="5.856" x2="74.1969" y2="5.856" gradientUnits="userSpaceOnUse">
<stop offset="0.274038" stop-color="#1C6CC7"/>
<stop offset="1" stop-color="#03B9FF"/>
</linearGradient>
<linearGradient id="paint6_linear_3217_201" x1="0" y1="5.856" x2="74.1969" y2="5.856" gradientUnits="userSpaceOnUse">
<stop offset="0.274038" stop-color="#1C6CC7"/>
<stop offset="1" stop-color="#03B9FF"/>
</linearGradient>
<linearGradient id="paint7_linear_3217_201" x1="0" y1="5.856" x2="74.1969" y2="5.856" gradientUnits="userSpaceOnUse">
<stop offset="0.274038" stop-color="#1C6CC7"/>
<stop offset="1" stop-color="#03B9FF"/>
</linearGradient>
</defs>
</svg>
