<svg width="23" height="24" viewBox="0 0 23 24" fill="none" xmlns="http://www.w3.org/2000/svg">
<g clip-path="url(#clip0_3116_1239)">
<path d="M15.9708 14.2592V14.2315C16.7326 14.0174 17.8378 13.3533 17.8378 12.107C17.8378 11.4291 17.596 10.8272 17.1322 10.467C16.7316 10.1621 16.1011 10.0112 15.1942 10.0112H12.309V10.1562C13.2424 10.2875 13.2849 10.3437 13.2849 11.4785V17.5253C13.2849 18.8476 13.2168 18.9236 12.2201 19.0341V19.1801H14.7324C15.7212 19.1801 16.5106 19.0064 17.1332 18.6196C17.8802 18.1499 18.3578 17.4572 18.3578 16.5099C18.3578 15.1749 17.3266 14.4545 15.9708 14.268M14.2894 11.1193C14.2894 10.6003 14.3456 10.4128 14.4907 10.3447C14.6367 10.2894 14.8508 10.2618 15.1548 10.2618C16.2895 10.2618 16.7464 11.2861 16.7464 12.2195C16.7464 13.4579 16.2698 14.1921 14.7956 14.1921H14.2914V11.1193H14.2894ZM15.1962 18.9097C14.5173 18.9097 14.2894 18.592 14.2894 17.5885V14.4397H14.7818C16.3586 14.4397 17.1964 15.1462 17.1964 16.6264C17.1964 18.2387 16.2619 18.8969 15.1962 18.9097Z" fill="#232A46"/>
<path d="M18.9737 6.98071H3.30103C2.91323 6.97874 2.54221 7.13958 2.27677 7.42377C2.01331 7.70894 1.87615 8.08785 1.89687 8.47565L2.58859 19.6704C2.65668 20.7499 3.53686 21.6212 4.68446 21.7317C4.93312 21.7594 5.18179 21.7821 5.43144 21.8008C7.29937 21.9735 10.5655 22.2093 11.0708 23.6342C11.0836 23.6618 11.1112 23.6826 11.1388 23.6826C11.1665 23.6826 11.202 23.6618 11.2079 23.6342C11.6924 22.2498 14.7987 21.9942 16.6874 21.8146C16.6874 21.8146 16.791 21.8077 16.8393 21.8018C17.1028 21.7742 17.3515 21.7535 17.5863 21.7327C18.7349 21.6153 19.6141 20.7509 19.6832 19.6714L20.3749 8.47664C20.4015 8.08785 20.2634 7.70598 19.994 7.42475C19.7286 7.14155 19.3575 6.98071 18.9697 6.9817M6.25242 21.3045C5.98994 21.2759 5.73338 21.2561 5.47781 21.2285C5.21534 21.2009 4.96569 21.1801 4.73775 21.1594C3.85953 21.0686 3.20827 20.447 3.16091 19.6378L2.86982 14.8767H6.25341V21.3055L6.25242 21.3045ZM6.25242 13.7203H2.79877L2.47413 8.43519C2.45932 8.20528 2.53925 7.9803 2.69516 7.81156C2.85205 7.6448 3.06914 7.55007 3.29807 7.54908H6.25242V13.7203ZM10.8468 22.3761C10.1195 21.864 8.79825 21.6015 7.40791 21.4278V14.8688H10.8468V22.3761ZM10.8468 13.7203H7.40791V7.55501H10.8468V13.7203ZM19.8006 8.43519L19.1089 19.629C19.0605 20.4391 18.4093 21.0677 17.5311 21.1515C17.2962 21.1713 17.0466 21.1989 16.7841 21.2196C14.8115 21.4061 12.4798 21.6212 11.422 22.3682V7.5481H18.9707C19.1997 7.5481 19.4148 7.63789 19.5736 7.81057C19.7325 7.97635 19.8085 8.19837 19.7957 8.43322M21.8649 2.17126C21.5955 2.0193 21.2501 2.04002 20.9926 2.2127C20.737 2.39229 20.6196 2.66168 20.6324 2.93895C20.5831 2.83929 20.513 2.75147 20.4252 2.68338C20.1006 2.414 19.6082 2.44163 19.3112 2.73174C18.9786 3.05638 18.9786 3.5912 19.3112 3.91486C19.4463 4.05103 19.625 4.13589 19.8154 4.1576L19.5805 4.39245C19.3418 4.63026 19.0181 4.76446 18.6806 4.76544H16.3825C16.0164 4.76544 15.7677 4.39245 15.9059 4.05399L16.196 3.34747C16.3075 3.54877 16.494 3.70764 16.7436 3.7629C17.0959 3.84677 17.4699 3.68001 17.6495 3.36227C17.8991 2.91823 17.6978 2.37256 17.2409 2.17915C17.162 2.14462 17.0771 2.12389 16.9913 2.116C17.2538 2.0193 17.4689 1.79826 17.5241 1.47954C17.5853 1.15885 17.4492 0.832228 17.1778 0.649678C16.7219 0.33885 16.1338 0.539162 15.9325 1.01577C15.8467 1.23285 15.8516 1.47362 15.9453 1.68676C15.8605 1.61571 15.7618 1.56144 15.6552 1.52789C15.2536 1.40356 14.8106 1.61078 14.6458 1.99858C14.4652 2.42387 14.6675 2.91527 15.0948 3.09092C15.2822 3.1669 15.4756 3.1738 15.6483 3.11854L15.3849 3.74908C15.1342 4.35988 14.5382 4.75853 13.8771 4.75853H12.6101C11.946 4.75755 11.4072 4.21878 11.4072 3.55469V2.8837C11.5937 3.02974 11.8355 3.10572 12.098 3.04947C12.4167 2.98731 12.6792 2.73174 12.7413 2.414C12.8538 1.89398 12.4571 1.40257 11.9253 1.40356C11.8414 1.40356 11.7516 1.41738 11.6756 1.445C11.8957 1.24667 11.9914 0.944719 11.9253 0.655599C11.8621 0.34477 11.6066 0.0882136 11.2888 0.0191406C10.7688 -0.0933497 10.2774 0.304313 10.2794 0.836176C10.2794 1.07892 10.383 1.30094 10.5488 1.45191C10.4422 1.41639 10.3287 1.40356 10.2162 1.41738C9.8008 1.45783 9.46925 1.81899 9.46234 2.24033C9.46234 2.70411 9.83533 3.0771 10.2922 3.0771C10.4935 3.0771 10.6731 3.00901 10.8172 2.8906V3.5616C10.8172 4.22667 10.2784 4.76544 9.6143 4.76544H8.3473C7.68914 4.76544 7.0961 4.36482 6.83855 3.75599L6.57608 3.12545C6.7981 3.19453 7.06057 3.1669 7.28259 3.01494C7.55691 2.8314 7.69506 2.50182 7.63585 2.17816C7.54112 1.65222 6.98558 1.34929 6.49319 1.55453C6.41523 1.58611 6.34221 1.63051 6.27906 1.68577C6.39649 1.4302 6.38958 1.1253 6.20999 0.855911C6.0304 0.586526 5.69786 0.454301 5.38013 0.510546C4.85517 0.604288 4.55224 1.15983 4.75649 1.65222C4.84432 1.86931 5.02095 2.03706 5.24099 2.116C5.12949 2.12488 5.02095 2.15744 4.92326 2.2127C4.54829 2.41597 4.38449 2.86791 4.54237 3.26458C4.71604 3.69284 5.20646 3.89414 5.6357 3.72145C5.81331 3.64942 5.96133 3.51719 6.05112 3.34747L6.34123 4.05399C6.48036 4.39245 6.23071 4.76544 5.86462 4.76544H3.56647C3.23097 4.76643 2.9083 4.63223 2.67345 4.39245L2.4386 4.1576C2.67345 4.13688 2.89547 4.01156 3.04743 3.79151C3.22702 3.52114 3.23393 3.15505 3.04743 2.88468C2.7593 2.43571 2.12975 2.36762 1.75281 2.74654C1.69261 2.80772 1.6413 2.87679 1.60183 2.95376C1.61565 2.66464 1.47947 2.39032 1.24167 2.22652C0.981162 2.05087 0.644678 2.03509 0.368386 2.18606C0.212478 2.27092 0.0881466 2.40413 0.0161133 2.56695L2.25803 4.80886C2.6024 5.15521 3.07111 5.3496 3.55956 5.34862H18.6431C19.1276 5.34862 19.5973 5.15521 19.9447 4.80886L22.1866 2.56695C22.1136 2.40413 21.9902 2.27092 21.8343 2.18606" fill="#232A46"/>
</g>
<defs>
<clipPath id="clip0_3116_1239">
<rect width="22.2024" height="23.6826" fill="white"/>
</clipPath>
</defs>
</svg>
