<svg width="24" height="24" viewBox="0 0 24 24" fill="none" xmlns="http://www.w3.org/2000/svg">
<g clip-path="url(#clip0_3116_1228)">
<path d="M19.138 18.6902C17.2668 20.5436 15.9405 21.2068 15.2417 21.6213C14.5608 22.0239 13.2936 21.7042 12.6837 21.3667C12.6837 21.2779 12.9739 21.1357 13.0509 21.0884C14.4779 20.2712 15.5319 18.9981 16.7694 17.956C17.5807 17.2691 18.2616 16.4224 19.0077 15.6585C20.0262 14.6104 20.4525 13.2663 20.6361 11.8926C20.8256 10.4774 20.2038 9.52403 18.7531 9.29902C18.0721 9.19244 17.3734 9.2931 16.7635 9.63062C15.5674 10.2938 14.395 11.0044 13.6548 12.2301C13.3588 12.7275 13.0153 13.2012 12.7607 13.7163C12.216 14.8177 11.6949 15.925 11.2093 17.056C10.8481 17.9027 10.5639 18.7791 10.2382 19.6377C10.1849 19.7798 10.108 19.9278 9.99546 20.0344C9.20792 20.7805 7.4256 20.8634 6.62622 20.1706C6.49003 20.0521 6.31831 19.7798 6.25318 19.614C5.97488 18.8679 5.6196 17.506 6.66767 15.5342C7.2598 14.4269 8.11247 13.4913 8.675 12.3485C9.22568 11.2294 10.0369 10.2464 10.6705 9.16875C11.31 8.06739 11.8962 6.92457 12.4587 5.77584C12.8258 5.02383 13.039 4.19484 13.4476 3.47836C13.7318 2.97505 13.6193 2.48358 13.6548 1.98619C13.6844 1.6013 14.0752 1.28747 13.8917 0.813766C13.4654 0.553228 13.2403 0.417038 12.8851 0.345982C12.4824 0.269004 12.0561 0.00254503 11.6179 0.286769C10.7238 0.861137 9.96585 1.54801 9.54543 2.56056C9.3974 2.92176 9.17239 3.25335 8.99475 3.60271C8.45591 4.64486 7.87562 5.66925 7.40192 6.73509C7.04071 7.54631 6.83939 8.41675 6.5374 9.25757C5.91566 10.9807 5.29985 12.7097 4.64258 14.421C4.24585 15.4631 4.31691 16.6651 3.58858 17.5948C3.19778 18.0922 2.8425 18.6192 2.40432 19.0751C1.72929 19.7857 1.00096 20.443 0.278563 21.1417C0.0239459 21.42 0.195665 21.9529 0.598315 21.9292C1.93061 21.6509 2.60564 20.4903 3.63595 19.6613C3.76622 19.5548 3.98531 19.6377 3.99715 19.8094C3.99715 19.9041 3.99123 20.5259 4.18664 20.9996C4.42349 21.568 5.13997 22.4325 5.78539 22.5095C7.24204 22.6871 7.99997 21.8049 9.39148 21.2956C9.82374 21.1357 10.0132 22.3555 10.931 23.1135C11.4225 23.5161 11.9376 23.7885 12.5535 23.8299C13.0449 23.8655 13.5423 23.7944 14.0338 23.8299C14.9398 23.9069 15.7391 23.5813 16.4793 23.1431C17.403 22.5983 18.2853 21.9825 19.1617 21.3726C20.3874 20.5199 21.1335 20.0581 22.3059 19.1343C22.7085 18.8146 23.4724 17.8849 23.2059 17.3757C23.0638 17.1092 22.4243 16.2625 20.9499 17.056C20.2393 17.4349 19.7183 18.1218 19.1439 18.6902H19.138ZM13.6193 16.0612C13.8147 15.6704 14.0516 15.2914 14.2766 14.9124C14.4068 14.6933 14.7444 14.0538 14.8805 13.8525C15.3187 13.1834 15.3128 13.0176 15.7687 12.4136C16.355 11.6379 17.403 10.655 18.2261 11.1524C18.611 11.3892 18.0958 12.1886 17.8767 12.6623C17.6873 13.065 17.634 13.4321 17.3912 13.817C17.0774 14.3144 16.5622 15.1907 16.0352 15.6585C15.4608 16.1678 15.0463 16.5645 14.4601 17.1033C14.1049 17.4349 13.5305 18.2106 13.0568 17.9856C12.6068 17.6718 13.3588 16.6059 13.6311 16.0612H13.6193ZM7.12954 10.9748C7.61508 9.7372 7.99405 8.44635 8.55657 7.24432C9.07173 6.14888 9.45662 5.58635 10.102 4.55604C10.2323 4.34287 10.6468 3.85733 11.008 3.97575C11.4047 4.17708 11.0258 5.04159 10.9073 5.2666C10.1849 6.5989 9.87703 7.58184 9.33819 8.98519C9.12502 9.53588 8.70461 9.99774 8.40262 10.5188C8.15392 10.9511 7.96444 11.4129 7.7039 11.8333C7.56179 12.0584 7.39599 12.538 7.09401 12.4432C6.69136 12.0702 6.9519 11.4425 7.13546 10.9807L7.12954 10.9748Z" fill="#242424"/>
</g>
<defs>
<clipPath id="clip0_3116_1228">
<rect width="23.6826" height="23.6826" fill="white"/>
</clipPath>
</defs>
</svg>
