<svg width="30" height="26" viewBox="0 0 30 26" fill="none" xmlns="http://www.w3.org/2000/svg">
<g clip-path="url(#clip0_3116_1217)">
<path d="M29.3861 5.95303L21.8557 11.3283L24.8457 16.3888C21.5379 16.2 18.1589 16.1026 14.7087 16.0966C11.286 16.0966 7.93249 16.2049 4.64802 16.3957L7.74642 11.2985L0.217773 5.92065L4.19472 17.134L5.09873 19.7195C8.24534 19.5661 11.4456 19.4894 14.6996 19.4894C18.0839 19.4894 21.4123 19.5714 24.6847 19.7355L25.6392 16.6625L29.3861 5.95303Z" fill="#102137"/>
<path d="M16.9629 8.15869L14.7478 10.3786L12.5215 8.15869L14.7478 5.93666L16.9629 8.15869ZM13.8555 11.3171L11.6334 13.5387L9.41356 11.3171L11.6334 9.09723L13.8555 11.3171ZM20.1762 11.3171L17.9567 13.5387L15.7369 11.3171L17.9567 9.09723L20.1762 11.3171Z" fill="#102137"/>
</g>
<defs>
<clipPath id="clip0_3116_1217">
<rect width="29.6032" height="25.6561" fill="white"/>
</clipPath>
</defs>
</svg>
