<svg width="17" height="24" viewBox="0 0 17 24" fill="none" xmlns="http://www.w3.org/2000/svg">
<g clip-path="url(#clip0_3116_1244)">
<path d="M7.48937 11.5337H15.8609L15.6298 12.2289H9.73341C9.17862 12.2289 8.73053 12.6974 8.73053 13.2774V15.1401C8.73053 15.7201 9.17862 16.1886 9.73341 16.1886H13.528L13.2968 16.8838H9.73341C9.17862 16.8838 8.73053 17.3523 8.73053 17.9323V22.2563C8.73053 22.8363 9.17862 23.3047 9.73341 23.3047H15.8609V24H7.48937V11.5337Z" fill="#102137"/>
<path d="M11.1739 1.25357C9.72652 0.368698 7.48604 -0.0477139 4.47384 0.00433763L0.241829 0.0303634L0 0.759085L0.967317 0.855752C1.29805 0.922675 1.53633 1.22755 1.53633 1.57704V20.4903H2.83438V11.8907C2.83438 11.5709 3.15089 11.3478 3.43184 11.478C4.77257 12.11 6.0244 12.2104 7.21932 12.2104C10.5302 12.2104 13.6918 10.0503 13.6918 5.88616C13.6918 3.67397 12.696 2.1905 11.1775 1.25357H11.1739ZM6.31601 11.5375C5.29535 11.5375 4.50229 11.4668 3.70924 11.2958C3.19713 11.1843 2.83083 10.7084 2.83083 10.1618V0.759085L4.05064 0.733059C6.73922 0.654982 9.02948 0.941265 10.324 1.90422C11.3944 2.71102 12.1413 3.93423 12.1413 5.99026C12.1413 10.1284 9.22863 11.5337 6.31601 11.5337V11.5375Z" fill="#102137"/>
</g>
<defs>
<clipPath id="clip0_3116_1244">
<rect width="16.5" height="24" fill="white"/>
</clipPath>
</defs>
</svg>
